xxxxxxxxxxxxxxxxxxxxxxxxxxxxxxxxxxxxxxxxxxxxxxxxxxxxxxxxxxxxxxxxxxxxxxxxxxxxxxxx

Dark City
1998

xxxxxxxxxxxxxxxxxxxxxxxxxxxxxxxxxxxxxxxxxxxxxxxxxxxxxxxxxxxxxxxxxxxxxxxxxxxxxxxx
 
http://www.imdb.com/title/tt0118929/ 
http://en.wikipedia.org/wiki/Dark_City_(1998_film)

xxxxxxxxxxxxxxxxxxxxxxxxxxxxxxxxxxxxxxxxxxxxxxxxxxxxxxxxxxxxxxxxxxxxxxxxxxxxxxxx

When John Murdoch wakes with no memory at the scene of a grisly murder, he soon
finds himself hunted by the police, a woman claiming to be his wife and a
mysterious group of pale men who seem to control everything and everyone in the
city.

xxxxxxxxxxxxxxxxxxxxxxxxxxxxxxxxxxxxxxxxxxxxxxxxxxxxxxxxxxxxxxxxxxxxxxxxxxxxxxxx

Rufus Sewell	 	... John Murdoch
Jennifer Connelly	... Emma Murdoch / Anna
Kiefer Sutherland	... Dr. Daniel P. Schreber
William Hurt	 	... Inspector Frank Bumstead
Richard O'Brien	 	... Mr. Hand
Ian Richardson	 	... Mr. Book

xxxxxxxxxxxxxxxxxxxxxxxxxxxxxxxxxxxxxxxxxxxxxxxxxxxxxxxxxxxxxxxxxxxxxxxxxxxxxxxx

General
Format                           : MPEG-4
Format profile                   : Base Media / Version 2
Codec ID                         : mp42
File size                        : 280 MiB
Duration                         : 1h 51mn
Overall bit rate                 : 351 Kbps

Video
ID                               : 1
Format                           : AVC
Format/Info                      : Advanced Video Codec
Format profile                   : Baseline@L1.3
Format settings, CABAC           : No
Format settings, ReFrames        : 2 frames
Codec ID                         : avc1
Codec ID/Info                    : Advanced Video Coding
Duration                         : 1h 51mn
Bit rate mode                    : Variable
Bit rate                         : 300 Kbps
Width                            : 480 pixels
Height                           : 208 pixels
Display aspect ratio             : 2.35:1
Frame rate mode                  : Variable
Frame rate                       : 23.976 fps
Minimum frame rate               : 11.989 fps
Maximum frame rate               : 23.981 fps
Color space                      : YUV
Chroma subsampling               : 4:2:0
Bit depth                        : 8 bits
Scan type                        : Progressive
Bits/(Pixel*Frame)               : 0.125
Stream size                      : 240 MiB (86%)
Writing library                  : x264 core 79

Audio
ID                               : 2
Format                           : AAC
Format/Info                      : Advanced Audio Codec
Format profile                   : LC
Codec ID                         : 40
Duration                         : 1h 51mn
Bit rate mode                    : Variable
Bit rate                         : 48.0 Kbps
Maximum bit rate                 : 81.8 Kbps
Channel(s)                       : 2 channels
Channel positions                : Front: L R
Sampling rate                    : 24.0 KHz
Compression mode                 : Lossy
Stream size                      : 38.2 MiB (14%)

xxxxxxxxxxxxxxxxxxxxxxxxxxxxxxxxxxxxxxxxxxxxxxxxxxxxxxxxxxxxxxxxxxxxxxxxxxxxxxxx

FaCTFiCTioN ... 1. A work of fiction based in fact.
                2. A work of fiction which later becomes fact.

xxxxxxxxxxxxxxxxxxxxxxxxxxxxxxxxxxxxxxxxxxxxxxxxxxxxxxxxxxxxxxxxxxxxxxxxxxxxxxxx

272p = 272 lines of pixels in a 16:9 aspect ratio video with a 480 pixel width.

A 480x208 pixel video with an aspect ratio of 2.35:1 or a 480x352 pixel video
with an aspect ratio of 4:3 are also considered 272p.

272p m4v/mp4 format videos are easily played on PCs, Macs, smartphones, tablets,
game consoles, and portable multimedia players such as iPods, Zunes, PSPs, etc.
